<svg xmlns="http://www.w3.org/2000/svg" version="1.1" xmlns:xlink="http://www.w3.org/1999/xlink" xmlns:svgjs="http://svgjs.dev/svgjs" width="1000" height="1000" viewBox="0 0 1000 1000"><rect width="1000" height="1000" fill="#000000"></rect><g transform="matrix(0.7,0,0,0.7,149.57575767947895,420.7929569326072)"><svg viewBox="0 0 396 90" data-background-color="#ffffff" preserveAspectRatio="xMidYMid meet" height="227" width="1000" xmlns="http://www.w3.org/2000/svg" xmlns:xlink="http://www.w3.org/1999/xlink"><g id="tight-bounds" transform="matrix(1,0,0,1,0.2400000586767419,-0.13760933879575532)"><svg viewBox="0 0 395.52 90.27521867759152" height="90.27521867759152" width="395.52"><g><svg viewBox="0 0 395.52 90.27521867759152" height="90.27521867759152" width="395.52"><g><svg viewBox="0 0 395.52 90.27521867759152" height="90.27521867759152" width="395.52"><g id="textblocktransform"><svg viewBox="0 0 395.52 90.27521867759152" height="90.27521867759152" width="395.52" id="textblock"><g><svg viewBox="0 0 395.52 59.67559496033597" height="59.67559496033597" width="395.52"><g transform="matrix(1,0,0,1,0,0)"><svg width="395.52" viewBox="2.1500000953674316 -39 321.4200134277344 48.5" height="59.67559496033597" data-palette-color="#a437db"><path d="M18.9-3.5L18.9-3.5Q23.15-3.5 24.95-5.63 26.75-7.75 26.75-11.9L26.75-11.9 26.75-13.9 22.55-14.95 22.55-17.95 37.45-17.95 37.45-14.95 33.25-13.9 33.25 0 29.15 0 27.9-3.95Q25.75-1.55 23.43-0.53 21.1 0.5 17.95 0.5L17.95 0.5Q11.1 0.5 7-3.7L7-3.7Q4.7-6.05 3.43-9.65 2.15-13.25 2.15-17.6L2.15-17.6Q2.15-22.05 3.48-25.88 4.8-29.7 7.2-32.2L7.2-32.2Q9.25-34.35 12.05-35.43 14.85-36.5 18.65-36.5L18.65-36.5Q21.65-36.5 23.6-35.7 25.55-34.9 27.4-32.9L27.4-32.9 28.4-36 32.65-36 32.65-24.2 28.1-24.2Q27.45-28.2 25.15-30.63 22.85-33.05 18.85-33.05L18.85-33.05Q16.6-33.05 15.1-32.3 13.6-31.55 12.5-30.15L12.5-30.15Q11.1-28.05 10.15-24.98 9.2-21.9 9.2-18.3L9.2-18.3Q9.2-14.8 10.08-11.55 10.95-8.3 12.55-6.1L12.55-6.1Q13.55-4.75 15.23-4.13 16.9-3.5 18.9-3.5ZM39.75-5.9L39.75-5.9Q39.75-10.05 43.55-12.33 47.35-14.6 55.5-15.85L55.5-15.85Q55.3-18.35 54.95-19.7 54.6-21.05 54.05-22L54.05-22Q53.4-23.15 52.45-23.85 51.5-24.55 50.05-24.55L50.05-24.55Q49-24.55 48.12-24.15 47.25-23.75 46.95-23.05L46.95-23.05Q47.65-22.7 47.92-21.95 48.2-21.2 48.2-20.65L48.2-20.65Q48.2-19.4 47.1-18.43 46-17.45 44.45-17.45L44.45-17.45Q42.9-17.45 42-18.48 41.1-19.5 41.1-21.05L41.1-21.05Q41.1-23.1 42.55-24.55 44-26 46.25-26.75 48.5-27.5 50.8-27.5L50.8-27.5Q53.15-27.5 55.02-26.83 56.9-26.15 58.05-25.15L58.05-25.15Q62-21.65 62-14.05L62-14.05 62-7.55Q62-5.1 62.32-4.15 62.65-3.2 63.75-3.2L63.75-3.2 66-3.2 66-0.95Q61.4 0.5 59.05 0.5L59.05 0.5Q57.4 0.5 56.85-0.6 56.3-1.7 56.3-4.95L56.3-4.95 56.1-4.95Q54.55-2.4 52-0.95 49.45 0.5 46.5 0.5L46.5 0.5Q43.35 0.5 41.55-1.2 39.75-2.9 39.75-5.9ZM49.55-3.15L49.55-3.15Q50.6-3.15 51.87-3.85 53.15-4.55 54.1-5.8L54.1-5.8Q54.65-6.5 55.15-7.8 55.65-9.1 55.65-10.9L55.65-10.9Q55.65-11.5 55.6-12.25 55.55-13 55.45-13.65L55.45-13.65Q52-12.9 50.02-12.05 48.05-11.2 47.22-10.03 46.4-8.85 46.4-7.15L46.4-7.15Q46.4-5 47.4-4.08 48.4-3.15 49.55-3.15ZM66.8-2.85L70.65-3.8 70.65-35.2 66.8-36.15 66.8-39 77-39 77-3.8 80.85-2.85 80.85 0 66.8 0 66.8-2.85ZM83.09-2.85L86.94-3.8 86.94-35.2 83.09-36.15 83.09-39 93.29-39 93.29-3.8 97.14-2.85 97.14 0 83.09 0 83.09-2.85ZM124.19-12.8L124.19-12.8 106.74-12.8Q106.74-9.4 107.74-7.15L107.74-7.15Q108.54-5.45 109.89-4.53 111.24-3.6 113.24-3.6L113.24-3.6Q115.44-3.6 117.62-4.6 119.79-5.6 121.34-7.6L121.34-7.6 124.04-5.5Q122.29-3 119.32-1.25 116.34 0.5 111.99 0.5L111.99 0.5Q108.34 0.5 105.69-0.98 103.04-2.45 101.64-5.3L101.64-5.3Q100.89-6.85 100.54-8.75 100.19-10.65 100.19-12.85L100.19-12.85Q100.19-19.85 103.42-23.68 106.64-27.5 112.54-27.5L112.54-27.5Q117.99-27.5 121.17-24.33 124.34-21.15 124.34-15.55L124.34-15.55Q124.34-15 124.32-14.48 124.29-13.95 124.19-12.8ZM112.44-24.05L112.44-24.05Q107.29-24.05 106.79-16L106.79-16 117.79-16 117.79-17.3Q117.79-20.55 116.37-22.3 114.94-24.05 112.44-24.05ZM142.59-23.35L142.59-23.35Q142.59-23.35 142.59-23.35 142.59-23.35 142.59-23.35L142.59-23.35Q142.04-23.35 141.34-22.68 140.64-22 140.06-21.1 139.49-20.2 139.24-19.5L139.24-19.5Q138.64-17.8 138.19-16 137.74-14.2 137.74-11.6L137.74-11.6 137.74-3.75 143.14-2.8 143.14 0 127.54 0 127.54-2.8 131.39-3.75 131.39-24 127.54-24.95 127.54-27 136.24-27 137.34-20.4 137.54-20.4Q138.69-23.8 140.64-25.65 142.59-27.5 144.94-27.5L144.94-27.5Q146.89-27.5 148.19-26.28 149.49-25.05 149.49-23L149.49-23Q149.49-21.5 148.59-20.28 147.69-19.05 146.04-19.05L146.04-19.05Q144.04-19.05 143.19-19.98 142.34-20.9 142.34-22L142.34-22Q142.34-22.35 142.36-22.53 142.39-22.7 142.59-23.35ZM155.19-3.75L155.19-23.25 151.34-24.2 151.34-27 161.54-27 161.54-3.75 165.39-2.8 165.39 0 151.34 0 151.34-2.8 155.19-3.75ZM154.64-34.6L154.64-34.6Q154.64-36.2 155.61-37.2 156.59-38.2 158.34-38.2L158.34-38.2Q160.09-38.2 161.09-37.2 162.09-36.2 162.09-34.6L162.09-34.6Q162.09-33.05 161.11-32.05 160.14-31.05 158.34-31.05L158.34-31.05Q156.54-31.05 155.59-32.02 154.64-33 154.64-34.6ZM176.13-3.55L186.58-3.55 187.58-10.35 191.93-10.35 191.93 0 168.28 0 168.28-3.55 183.93-23.45 174.48-23.45 173.28-16.9 168.93-16.9 168.93-27 191.73-27 191.73-23.45 176.13-3.55ZM220.13-12.8L220.13-12.8 202.68-12.8Q202.68-9.4 203.68-7.15L203.68-7.15Q204.48-5.45 205.83-4.53 207.18-3.6 209.18-3.6L209.18-3.6Q211.38-3.6 213.56-4.6 215.73-5.6 217.28-7.6L217.28-7.6 219.98-5.5Q218.23-3 215.26-1.25 212.28 0.5 207.93 0.5L207.93 0.5Q204.28 0.5 201.63-0.98 198.98-2.45 197.58-5.3L197.58-5.3Q196.83-6.85 196.48-8.75 196.13-10.65 196.13-12.85L196.13-12.85Q196.13-19.85 199.36-23.68 202.58-27.5 208.48-27.5L208.48-27.5Q213.93-27.5 217.11-24.33 220.28-21.15 220.28-15.55L220.28-15.55Q220.28-15 220.26-14.48 220.23-13.95 220.13-12.8ZM208.38-24.05L208.38-24.05Q203.23-24.05 202.73-16L202.73-16 213.73-16 213.73-17.3Q213.73-20.55 212.31-22.3 210.88-24.05 208.38-24.05ZM224.28-2.6L224.28-2.6Q224.28-4.5 225.33-5.58 226.38-6.65 228.18-6.65L228.18-6.65Q229.98-6.65 231.05-5.55 232.13-4.45 232.13-2.65L232.13-2.65Q232.13-0.85 231.08 0.2 230.03 1.25 228.13 1.25L228.13 1.25Q226.33 1.25 225.3 0.25 224.28-0.75 224.28-2.6ZM262.63-24.2L259.58-23.25 251.53-1.2Q249.88 2.65 248.53 5.03 247.18 7.4 245.55 8.45 243.93 9.5 241.33 9.5L241.33 9.5Q238.98 9.5 237.3 8.25 235.63 7 235.63 5.1L235.63 5.1Q235.63 3.35 236.65 2.23 237.68 1.1 239.33 1.1L239.33 1.1Q240.78 1.1 241.55 1.75 242.33 2.4 242.33 3.7L242.33 3.7Q242.33 4.2 241.8 5.08 241.28 5.95 240.03 5.95L240.03 5.95Q240.13 6.45 240.63 6.63 241.13 6.8 241.48 6.8L241.48 6.8Q242.18 6.8 242.78 6.53 243.38 6.25 244.05 5.25 244.73 4.25 245.53 2.2L245.53 2.2 246.13 0.35 236.08-23.25 233.08-24.2 233.08-27 245.78-27 246.18-24.2 242.63-23.25 248.78-5.9 248.98-5.9 254.53-23.25 251.63-24.2 251.63-27 262.63-27 262.63-24.2ZM290.07-13.5L290.07-13.5Q290.07-10.3 289.15-7.48 288.22-4.65 286.47-2.75L286.47-2.75Q284.82-1 282.5-0.25 280.17 0.5 277.07 0.5L277.07 0.5Q273.97 0.5 271.65-0.25 269.32-1 267.67-2.75L267.67-2.75Q265.92-4.65 265-7.48 264.07-10.3 264.07-13.5L264.07-13.5Q264.07-16.7 265-19.55 265.92-22.4 267.67-24.25L267.67-24.25Q269.32-26 271.65-26.75 273.97-27.5 277.07-27.5L277.07-27.5Q280.17-27.5 282.5-26.75 284.82-26 286.47-24.25L286.47-24.25Q288.22-22.4 289.15-19.55 290.07-16.7 290.07-13.5ZM272.52-4.85L272.52-4.85Q273.22-3.85 274.35-3.35 275.47-2.85 277.07-2.85L277.07-2.85Q278.67-2.85 279.82-3.35 280.97-3.85 281.62-4.85L281.62-4.85Q283.22-7.3 283.22-13.5L283.22-13.5Q283.22-16.65 282.82-18.8 282.42-20.95 281.62-22.15L281.62-22.15Q280.97-23.15 279.82-23.65 278.67-24.15 277.07-24.15L277.07-24.15Q275.47-24.15 274.35-23.65 273.22-23.15 272.52-22.15L272.52-22.15Q270.92-19.7 270.92-13.5L270.92-13.5Q270.92-7.3 272.52-4.85ZM293.12-27L302.82-27 302.82-13.6Q302.82-10.4 302.97-8.8 303.12-7.2 303.42-6.25L303.42-6.25Q303.82-5.05 304.75-4.42 305.67-3.8 306.62-3.8L306.62-3.8Q307.97-3.8 309.07-4.3 310.17-4.8 311.12-5.65L311.12-5.65Q313.17-7.5 313.37-11.4L313.37-11.4 313.37-23.25 309.02-24.2 309.02-27 319.72-27 319.72-3.75 323.57-2.8 323.57 0 314.32 0.5 313.77-5 313.57-5Q312.12-2.45 309.62-0.98 307.12 0.5 304.27 0.5L304.27 0.5Q302.37 0.5 300.8-0.23 299.22-0.95 298.32-2.2L298.32-2.2Q297.37-3.6 296.92-6.15 296.47-8.7 296.47-12.95L296.47-12.95 296.47-23.25 293.12-24.2 293.12-27Z" opacity="1" transform="matrix(1,0,0,1,0,0)" fill="#ffffff" class="wordmark-text-0" data-fill-palette-color="primary" id="text-0"></path></svg></g></svg></g><g transform="matrix(1,0,0,1,163.310208,73.76357071619225)"><svg viewBox="0 0 232.209792 16.511647961399277" height="16.511647961399277" width="232.209792"><g transform="matrix(1,0,0,1,0,0)"><svg width="232.209792" viewBox="-1.7100000381469727 -41.5 769.02001953125 54.68000030517578" height="16.511647961399277" data-palette-color="#b19dd0"><path d="M2.91-0.17L2.91-0.17Q2 0.49 0.84 0.49-0.32 0.49-1.01-0.11-1.71-0.71-1.71-1.49-1.71-2.27-1.46-2.64L-1.46-2.64Q-0.76-2.22 0.28-2.22 1.32-2.22 1.84-2.5 2.37-2.78 2.86-3.27L2.86-3.27 6.32-13.55 6.81-15.23Q7.03-15.99 7.03-16.63L7.03-16.63Q7.03-18.85 4.93-19.46L4.93-19.46Q6.86-20.19 7.64-21.04L7.64-21.04Q8.86-22.39 9.57-24.58L9.57-24.58 12.26-33.59Q11.47-34.64 10.4-34.64 9.33-34.64 8.4-34.18L8.4-34.18Q8.15-34.62 8.15-35.17 8.15-35.72 8.39-36.21 8.62-36.69 9.03-37.06L9.03-37.06Q9.96-37.84 11.67-37.84 13.38-37.84 14.58-36.82L14.58-36.82Q15.8-37.84 17.61-37.84 19.43-37.84 20.51-36.87L20.51-36.87Q22.07-37.84 23.68-37.84 25.29-37.84 26.18-37.23 27.08-36.62 27.08-35.57L27.08-35.57Q27.08-35.08 26.78-34.72L26.78-34.72Q26.22-35.13 25.46-35.13L25.46-35.13Q23.83-35.13 23.34-32.91L23.34-32.91 26.46-22.92Q27.05-21.04 29.39-20L29.39-20Q30.05-19.7 30.74-19.46L30.74-19.46Q28.3-18.65 28.3-17.04L28.3-17.04Q28.3-16.43 28.49-15.97L28.49-15.97 33.15-3.47Q34.23-2.34 35.33-2.34 36.43-2.34 37.04-2.76L37.04-2.76Q37.3-2.56 37.3-2.03 37.3-1.49 37.13-1.04 36.96-0.59 36.6-0.24L36.6-0.24Q35.82 0.49 34.3 0.49 32.79 0.49 31.67-0.34L31.67-0.34Q30.4 0.49 28.8 0.49 27.2 0.49 26.05-0.32L26.05-0.32Q24.95 0.49 23.46 0.49 21.97 0.49 21-0.13 20.02-0.76 19.97-1.9L19.97-1.9Q19.97-2.59 20.24-2.76L20.24-2.76Q20.9-2.34 21.58-2.34L21.58-2.34Q23.02-2.34 23.61-2.93L23.61-2.93 21.75-9.16 8.54-9.16 6.93-3.76Q7.93-2.22 9.36-2.22 10.79-2.22 11.5-2.64L11.5-2.64Q11.77-2.2 11.77-1.43 11.77-0.66 11.01-0.09 10.25 0.49 9.06 0.49 7.86 0.49 6.86-0.12L6.86-0.12Q5.98 0.49 4.85 0.49 3.71 0.49 2.91-0.17ZM9.52-12.45L20.75-12.45 15.09-31.27 9.52-12.45ZM24.15-10.03L25.42-6.47Q25.85-6.47 25.85-7.45L25.85-7.45Q25.85-9.16 25.34-10.77L25.34-10.77 24.41-13.62Q23.44-16.85 23.44-17.68L23.44-17.68Q23.41-19.04 24.63-19.48L24.63-19.48Q22.95-19.82 22.58-20.53L22.58-20.53Q22.41-20.83 22.3-21 22.19-21.17 22.08-21.4 21.97-21.63 21.83-22 21.68-22.36 21.44-23.05L21.44-23.05 19.92-27.61Q19.38-29.32 18.33-30.2L18.33-30.2Q18.02-30.47 17.75-30.52L17.75-30.52Q19.38-24.61 19.9-22.95L19.9-22.95Q23.44-12.06 24.15-10.03L24.15-10.03ZM32.67-4.13L32.62-4.27 32.67-4.13ZM42.38-0.29L42.38-0.29Q41.26 0.49 39.82 0.49 38.38 0.49 37.73-0.18 37.08-0.85 37.08-1.46L37.08-1.46Q37.08-2.27 37.35-2.64L37.35-2.64Q37.89-2.22 38.72-2.22L38.72-2.22Q40.28-2.22 40.74-3.74L40.74-3.74 40.74-11.33Q40.74-12.4 40.28-12.89L40.28-12.89Q39.57-13.7 37.77-14.58L37.77-14.58Q39.48-15.36 39.94-15.82L39.94-15.82Q40.74-16.63 40.74-17.8L40.74-17.8 40.74-21.36Q40.74-23.44 39.33-23.61L39.33-23.61Q38.91-23.66 38.28-23.66 37.64-23.66 37.11-23.24L37.11-23.24Q36.77-23.71 36.77-24.21 36.77-24.71 37.02-25.33 37.28-25.95 37.79-26.51L37.79-26.51Q39.08-27.83 40.78-27.83 42.48-27.83 43.6-27.29L43.6-27.29Q44.94-28.81 46.34-28.81 47.73-28.81 48.26-28.16 48.8-27.51 48.8-26.17L48.8-26.17 48.8-23.88Q50.07-26.15 52.27-27.48 54.47-28.81 56.93-28.81 59.4-28.81 60.9-28.16 62.4-27.51 63.38-26.32L63.38-26.32Q65.28-23.95 65.28-19.43L65.28-19.43 65.28-17.82Q65.28-16.65 65.79-16.14L65.79-16.14Q66.55-15.36 68.26-14.58L68.26-14.58Q66.43-13.67 65.96-13.21L65.96-13.21Q65.28-12.45 65.28-11.38L65.28-11.38 65.28-3.74Q65.74-2.22 67.31-2.22L67.31-2.22Q68.14-2.22 68.67-2.64L68.67-2.64Q68.94-2.27 68.94-1.56 68.94-0.85 68.3-0.18 67.65 0.49 66.31 0.49 64.96 0.49 63.86-0.27L63.86-0.27Q62.89 0.49 61.58 0.49 60.28 0.49 59.25-0.24L59.25-0.24Q58.18 0.49 56.96 0.49 55.73 0.49 55.03-0.12 54.32-0.73 54.32-1.88L54.32-1.88Q54.32-2.42 54.69-2.73L54.69-2.73Q55.25-2.29 55.81-2.29L55.81-2.29Q56.88-2.29 57.35-3.49L57.35-3.49 57.35-18.04Q57.35-22.78 55.03-23.54L55.03-23.54Q54.27-23.78 53.39-23.78 52.51-23.78 51.76-23.43 51-23.07 50.39-22.44L50.39-22.44Q49.05-21.02 48.8-19.07L48.8-19.07 48.8-3.49Q49.27-2.29 50.34-2.29L50.34-2.29Q50.9-2.29 51.46-2.73L51.46-2.73Q51.83-2.42 51.83-1.57 51.83-0.73 51.12-0.12 50.41 0.49 49.25 0.49 48.09 0.49 47.14-0.24L47.14-0.24Q46.21 0.49 44.87 0.49 43.53 0.49 42.38-0.29ZM59.69-15.77L59.69-6.47Q60.91-6.93 61.03-9.67L61.03-9.67Q61.18-12.4 61.18-14.82 61.18-17.24 60.98-18.81 60.79-20.39 60.42-21.28 60.06-22.17 59.56-22.57 59.06-22.97 58.47-23.27L58.47-23.27Q59.4-21.07 59.54-19.26 59.69-17.46 59.69-15.77L59.69-15.77ZM44.49-11.87Q44.5-12.67 44.52-13.22 44.53-13.77 44.53-14.11 44.53-14.45 44.53-14.81 44.53-15.16 44.52-15.75 44.5-16.33 44.49-17.04 44.48-17.75 44.43-18.43L44.43-18.43Q44.36-20.12 44.21-20.75L44.21-20.75Q43.92-22.17 43.09-22.71L43.09-22.71 43.09-21.12Q43.09-17.02 42.91-16.3 42.72-15.58 42.32-15.21 41.92-14.84 41.14-14.58L41.14-14.58Q42.6-14.06 42.8-13.35L42.8-13.35Q43.09-12.18 43.09-8.08L43.09-8.08 43.09-6.49Q44.21-7.23 44.38-9.47L44.38-9.47Q44.48-11.06 44.49-11.87ZM100.85-2.32L100.85-2.32Q98.63 0.61 94.18 0.61L94.18 0.61Q88.76 0.61 86.05-2.64L86.05-2.64Q84.88-4.03 84.44-5.74L84.44-5.74Q84.2-6.76 83.59-7.31 82.98-7.86 82.07-8.3L82.07-8.3Q83.83-9.11 84.59-11.33L84.59-11.33Q85.39-13.67 87.27-14.72L87.27-14.72Q89.3-15.82 91.74-15.88 94.18-15.94 95.35-16.04 96.53-16.14 97.43-16.36L97.43-16.36Q99.11-16.75 100.07-17.8L100.07-17.8 100.07-21.46Q100.07-23.88 99.08-25 98.09-26.12 96.07-26.12 94.06-26.12 93.1-25.38 92.13-24.63 92.13-23.39L92.13-23.39Q92.13-21.48 94.08-21.53L94.08-21.53Q93.69-19.63 92.03-19.63L92.03-19.63Q91.55-19.63 91.08-19.8L91.08-19.8 91.08-19.73Q91.08-19.09 91.67-18.92L91.67-18.92Q91.06-17.99 89.62-18.02 88.18-18.04 87.37-19.56L87.37-19.56Q87-19.46 86.53-19.46 86.05-19.46 85.48-19.78 84.9-20.09 84.56-20.65L84.56-20.65Q85.78-21.39 86.05-22.92L86.05-22.92Q86.35-24.8 89.06-26.73L89.06-26.73Q92.33-29.05 97.4-29.05L97.4-29.05Q105.83-29.05 107.68-23.88L107.68-23.88Q108.29-22.14 108.29-19.78L108.29-19.78 108.29-17.8Q108.29-16.6 108.89-15.84 109.49-15.09 110.93-14.6L110.93-14.6Q109.39-13.89 108.95-13.33L108.95-13.33Q108.29-12.48 108.29-11.38L108.29-11.38 108.29-4.05Q109-2.22 110.32-2.22L110.32-2.22Q111.15-2.22 111.69-2.64L111.69-2.64Q112.03-2.17 112.03-1.48 112.03-0.78 111.33-0.15 110.64 0.49 109.25 0.49 107.85 0.49 106.66-0.29L106.66-0.29Q105.61 0.49 104.79 0.49 103.97 0.49 103.37 0.33 102.78 0.17 102.26-0.17L102.26-0.17Q101.12-0.93 100.85-2.32ZM102.39-22.73L102.39-6.47Q103.8-7.03 103.87-11.87L103.87-11.87Q103.87-12.89 103.87-14.21 103.87-15.53 103.86-16.47 103.85-17.41 103.83-18.26L103.83-18.26Q103.73-21.34 103.26-21.94 102.8-22.53 102.39-22.73L102.39-22.73ZM93.38-8.2L93.38-8.2Q93.38-7.18 93.6-6.2 93.82-5.22 94.26-4.49L94.26-4.49Q95.23-2.95 97.01-2.95L97.01-2.95Q98.36-2.95 99.24-4.05L99.24-4.05Q100.07-5.13 100.07-6.81L100.07-6.81 100.07-14.77Q98.5-13.87 96.06-13.53L96.06-13.53Q93.38-13.11 93.38-8.2ZM89.71-2.71L89.71-2.71Q89.96-2.88 89.96-3.15L89.96-3.15Q89.96-3.52 89.62-4.17L89.62-4.17Q88.4-6.42 88.4-7.86 88.4-9.3 88.51-9.94 88.62-10.57 88.8-11.02 88.98-11.47 89.21-11.82 89.45-12.16 89.62-12.43L89.62-12.43Q89.93-12.99 89.93-13.2 89.93-13.4 89.71-13.55L89.71-13.55Q88.71-13.09 88.25-12.45L88.25-12.45Q87.42-11.33 87.03-9.55L87.03-9.55Q86.93-9.03 85.32-8.3L85.32-8.3Q86.88-7.59 87.03-7.06L87.03-7.06Q87.86-4.15 89.71-2.71ZM119.59-0.29L119.59-0.29Q118.47 0.49 117.03 0.49 115.59 0.49 114.94-0.18 114.3-0.85 114.3-1.46L114.3-1.46Q114.3-2.27 114.57-2.64L114.57-2.64Q115.1-2.22 115.93-2.22L115.93-2.22Q117.49-2.22 117.96-3.74L117.96-3.74 117.96-11.13Q117.96-12.26 117.52-12.79L117.52-12.79Q116.74-13.75 114.98-14.6L114.98-14.6Q117.96-15.97 117.96-18.8L117.96-18.8 117.96-21.36Q117.96-23.44 116.54-23.61L116.54-23.61Q116.13-23.66 115.49-23.66 114.86-23.66 114.32-23.24L114.32-23.24Q113.98-23.71 113.98-24.21 113.98-24.71 114.24-25.33 114.49-25.95 115.03-26.51L115.03-26.51Q116.3-27.83 118-27.83 119.69-27.83 120.82-27.29L120.82-27.29Q122.16-28.81 123.7-28.81L123.7-28.81Q126.09-28.81 126.09-26.17L126.09-26.17 126.09-22.83Q128.53-28.83 133.85-28.83L133.85-28.83Q136.24-28.83 137.73-27.37L137.73-27.37Q139.27-25.88 139.27-23.24L139.27-23.24 139.27-22.9Q139.27-22.73 139.22-22.2 139.17-21.68 139.26-21.14 139.35-20.61 139.54-20.26L139.54-20.26Q139.81-19.75 140.54-19.46L140.54-19.46Q140.37-18.8 139.75-18.27 139.13-17.75 138.37-17.75L138.37-17.75 137.91-17.75Q136.95-16.55 135.24-16.06L135.24-16.06Q134.76-15.92 134.18-15.92 133.61-15.92 133.18-16.17 132.75-16.43 132.7-16.72L132.7-16.72Q133.17-16.94 133.17-17.6L133.17-17.6 133.17-17.72Q132.97-17.68 132.83-17.68L132.83-17.68 132.58-17.68Q131.78-17.68 131.13-18.29 130.48-18.9 130.29-19.82L130.29-19.82Q131.61-19.78 132.58-20.8L132.58-20.8Q133.46-21.7 133.46-22.66L133.46-22.66Q133.46-24.9 131.51-24.9L131.51-24.9Q129.82-24.9 128.12-22.22L128.12-22.22Q126.5-19.75 126.09-17.11L126.09-17.11 126.09-3.91Q126.36-3.05 126.92-2.64 127.48-2.22 128.46-2.22 129.43-2.22 129.97-2.64L129.97-2.64Q130.24-2.27 130.24-1.56 130.24-0.85 129.59-0.18 128.95 0.49 127.42 0.49 125.89 0.49 124.5-0.34L124.5-0.34Q123.53 0.49 122.13 0.49 120.74 0.49 119.59-0.29ZM121.71-11.88Q121.72-12.7 121.73-13.26 121.74-13.82 121.74-14.16L121.74-14.16 121.74-14.82Q121.74-15.19 121.73-15.76 121.72-16.33 121.71-17.05 121.69-17.77 121.67-18.46L121.67-18.46Q121.52-21 121.12-21.72 120.72-22.44 120.3-22.71L120.3-22.71 120.3-21.12Q120.3-17.02 120.12-16.3 119.94-15.58 119.53-15.22 119.13-14.87 118.35-14.6L118.35-14.6Q119.81-14.09 120.01-13.35L120.01-13.35Q120.3-12.18 120.3-8.08L120.3-8.08 120.3-6.49Q121.43-7.23 121.57-9.47L121.57-9.47Q121.69-11.06 121.71-11.88ZM157.68-3.58Q158.14-4.05 158.41-4.8 158.68-5.54 158.68-6.36 158.68-7.18 158.58-7.86L158.58-7.86Q158.75-8.23 159.51-8.44 160.27-8.64 160.51-8.64L160.51-8.64Q161.44-8.64 162-7.95 162.56-7.25 162.56-6.02 162.56-4.79 161.84-3.59 161.12-2.39 159.92-1.46L159.92-1.46Q157.26 0.61 153.72 0.61L153.72 0.61Q146.98 0.61 144.79-4.49L144.79-4.49Q143.98-6.37 143.98-9.2L143.98-9.2 143.98-12.18Q143.98-13.33 141.47-14.6L141.47-14.6Q143.98-16.04 143.98-18.48L143.98-18.48 143.98-21.36Q143.98-24.15 141.71-24.15L141.71-24.15Q140.88-24.15 140.34-23.73L140.34-23.73Q140-24.19 140-24.69 140-25.2 140.19-25.79 140.37-26.39 140.83-26.88L140.83-26.88Q142-28.15 144.47-27.76L144.47-27.76 144.47-28.54Q144.47-31.1 145.76-33.06L145.76-33.06Q146.91-34.81 147.8-34.81 148.69-34.81 149.18-34.2L149.18-34.2Q149.6-36.13 150.28-36.99 150.96-37.84 152.23-37.84L152.23-37.84 152.23-27.66 160.17-27.66Q160.36-27.27 160.36-26.35 160.36-25.44 159.66-24.89 158.95-24.34 157.95-24.34L157.95-24.34 152.23-24.34 152.23-7.81Q152.23-3.56 154.16-2.83L154.16-2.83Q154.72-2.64 155.37-2.64 156.02-2.64 156.62-2.87 157.21-3.1 157.68-3.58ZM146.33-8.06L146.33-6.47Q147.47-7.2 147.62-9.52L147.62-9.52Q147.72-11.18 147.73-12.11 147.74-13.04 147.75-13.61 147.77-14.18 147.77-14.5L147.77-14.5 147.77-15.48Q147.77-16.19 147.75-17.3 147.74-18.41 147.73-19.71 147.72-21.02 147.67-22.22L147.67-22.22Q147.59-25.1 147.45-25.73L147.45-25.73Q147.16-27.15 146.33-27.69L146.33-27.69 146.33-20.07Q146.33-16.67 146.22-16.48 146.11-16.28 146.03-16.02L146.03-16.02Q145.81-15.28 144.37-14.79L144.37-14.79Q145.84-14.28 146.03-13.55L146.03-13.55Q146.33-12.38 146.33-8.06L146.33-8.06ZM179.08 0.95L179.08 0.95Q177.33-0.66 177.33-3.05L177.33-3.05Q177.33-6.62 181.55-8.91L181.55-8.91Q178.79-10.84 177.52-15.01L177.52-15.01Q177.11-16.31 176.69-16.77L176.69-16.77Q176.08-17.5 174.59-18.24L174.59-18.24Q175.81-18.8 176.46-19.68 177.11-20.56 177.58-21.97 178.06-23.39 178.93-24.68 179.79-25.98 181.16-26.95L181.16-26.95Q184.16-29.05 188.9-29.05L188.9-29.05Q190.41-29.05 192.05-28.74L192.05-28.74Q192.39-31.4 194.42-33.25L194.42-33.25Q196.42-35.13 199.1-35.13L199.1-35.13Q202.25-35.13 204.4-33.5L204.4-33.5Q205.57-32.62 206.75-32.84L206.75-32.84Q206.84-30.88 205.23-30.32L205.23-30.32Q204.96-27.03 202.38-27.03L202.38-27.03Q201.35-27.03 201.13-27.17L201.13-27.17Q201.5-27.49 201.5-27.99 201.5-28.49 201.08-28.86L201.08-28.86Q200.57-27.91 198.79-27.91L198.79-27.91Q197.81-27.91 197.25-28.83L197.25-28.83Q198.18-29.13 198.71-29.72 199.25-30.32 199.25-30.83L199.25-30.83Q199.25-32.18 197.83-32.18L197.83-32.18Q195.1-32.18 194.64-27.93L194.64-27.93Q199.08-26.03 200.3-21.95L200.3-21.95Q201.11-19.19 203.28-18.24L203.28-18.24Q201.37-17.29 200.76-16.11L200.76-16.11Q200.52-15.65 200.32-15.01L200.32-15.01Q199.01-10.86 196.2-8.9 193.39-6.93 188.97-6.93L188.97-6.93Q186.16-6.93 184.09-7.62L184.09-7.62Q183.28-7.1 183.28-6.48 183.28-5.86 183.53-5.43 183.77-5 184.41-4.66L184.41-4.66Q185.65-4 189.14-3.49L189.14-3.49Q190.73-3.17 192.41-5.54L192.41-5.54Q192.51-4.3 192.98-3.67 193.44-3.05 194-2.98L194-2.98Q200.74-1.98 202.72 1.42L202.72 1.42Q203.4 2.56 203.4 4.36 203.4 6.15 202.25 7.85 201.11 9.55 199.15 10.74L199.15 10.74Q195.1 13.18 189.19 13.18L189.19 13.18Q182.26 13.18 178.6 10.91L178.6 10.91Q175.45 8.94 175.45 5.86L175.45 5.86Q175.45 3.81 177.52 1.98L177.52 1.98Q178.21 1.39 179.08 0.95ZM186.6-11.38Q187.14-10.62 187.68-10.41 188.21-10.21 188.94-10.21 189.66-10.21 190.19-10.41 190.73-10.62 191.1-11.13L191.1-11.13Q191.8-12.13 191.8-14.5L191.8-14.5 191.8-21.26Q191.8-23.63 191.27-24.39 190.73-25.15 190.19-25.35 189.66-25.56 188.94-25.56 188.21-25.56 187.68-25.35 187.14-25.15 186.8-24.66L186.8-24.66Q186.07-23.63 186.07-21.26L186.07-21.26 186.07-14.5Q186.07-12.13 186.6-11.38ZM194.17-24.71L194.17-11.55Q195.3-11.94 195.47-13.96L195.47-13.96Q195.64-15.87 195.64-18.24L195.64-18.24Q195.64-21.9 195.44-22.92L195.44-22.92Q195.15-24.29 194.17-24.71L194.17-24.71ZM181.45-11.55L181.45-11.55Q181.94-11.91 181.94-12.4L181.94-12.4Q181.94-13.04 181.77-13.62L181.77-13.62Q181.11-15.87 181.11-18.24L181.11-18.24Q181.11-20.58 181.77-22.83L181.77-22.83Q181.94-23.41 181.94-23.75L181.94-23.75 181.94-24.34Q181.94-24.56 181.75-24.71L181.75-24.71Q180.74-23.49 180.29-21.92 179.84-20.36 179.57-19.17L179.57-19.17Q179.47-18.8 178.21-18.24L178.21-18.24Q179.5-17.6 179.57-17.29L179.57-17.29 180.06-15.23Q180.7-12.65 181.45-11.55ZM180.21-2.86L180.21-2.86Q179.99-2.64 179.99-2.22L179.99-2.22Q180.09 0.42 187.51 1.76L187.51 1.76Q188.36 1.95 188.73 3.61L188.73 3.61Q188.85 3.08 189.69 2.72 190.53 2.37 190.83 2.39L190.83 2.39Q194.51 2.83 195.81 3.22L195.81 3.22Q198.1 3.93 199.15 5.32L199.15 5.32Q199.45 4.98 199.45 4.44 199.45 3.91 198.91 3.36 198.37 2.81 197.15 2.39L197.15 2.39Q195.05 1.64 191.46 1.22 187.87 0.81 186.42 0.49 184.97 0.17 183.75-0.29L183.75-0.29Q181.09-1.34 180.21-2.86ZM181.53 2.51L181.53 2.51Q179.79 3.27 179.79 5.35L179.79 5.35Q179.79 7.01 182.31 8.35L182.31 8.35Q185.11 9.86 189.56 9.86L189.56 9.86Q195.03 9.86 196.66 7.98L196.66 7.98Q197.13 7.47 197.13 6.9 197.13 6.32 196.58 5.88 196.03 5.44 195.15 5.18L195.15 5.18Q193.85 4.74 191.07 4.42L191.07 4.42Q189.73 4.27 187.75 6.4L187.75 6.4Q187.75 5.03 187.3 4.42 186.85 3.81 186.41 3.76L186.41 3.76Q183.58 3.39 181.53 2.51ZM222.98-2.32L222.98-2.32Q220.76 0.61 216.31 0.61L216.31 0.61Q210.89 0.61 208.18-2.64L208.18-2.64Q207.01-4.03 206.57-5.74L206.57-5.74Q206.33-6.76 205.72-7.31 205.11-7.86 204.2-8.3L204.2-8.3Q205.96-9.11 206.72-11.33L206.72-11.33Q207.52-13.67 209.4-14.72L209.4-14.72Q211.43-15.82 213.87-15.88 216.31-15.94 217.48-16.04 218.66-16.14 219.56-16.36L219.56-16.36Q221.24-16.75 222.2-17.8L222.2-17.8 222.2-21.46Q222.2-23.88 221.21-25 220.22-26.12 218.21-26.12 216.19-26.12 215.23-25.38 214.26-24.63 214.26-23.39L214.26-23.39Q214.26-21.48 216.22-21.53L216.22-21.53Q215.82-19.63 214.16-19.63L214.16-19.63Q213.68-19.63 213.21-19.8L213.21-19.8 213.21-19.73Q213.21-19.09 213.8-18.92L213.8-18.92Q213.19-17.99 211.75-18.02 210.31-18.04 209.5-19.56L209.5-19.56Q209.14-19.46 208.66-19.46 208.18-19.46 207.61-19.78 207.04-20.09 206.69-20.65L206.69-20.65Q207.91-21.39 208.18-22.92L208.18-22.92Q208.48-24.8 211.19-26.73L211.19-26.73Q214.46-29.05 219.54-29.05L219.54-29.05Q227.96-29.05 229.81-23.88L229.81-23.88Q230.42-22.14 230.42-19.78L230.42-19.78 230.42-17.8Q230.42-16.6 231.02-15.84 231.62-15.09 233.06-14.6L233.06-14.6Q231.52-13.89 231.08-13.33L231.08-13.33Q230.42-12.48 230.42-11.38L230.42-11.38 230.42-4.05Q231.13-2.22 232.45-2.22L232.45-2.22Q233.28-2.22 233.82-2.64L233.82-2.64Q234.16-2.17 234.16-1.48 234.16-0.78 233.46-0.15 232.77 0.49 231.38 0.49 229.98 0.49 228.79-0.29L228.79-0.29Q227.74 0.49 226.92 0.49 226.1 0.49 225.5 0.33 224.91 0.17 224.39-0.17L224.39-0.17Q223.25-0.93 222.98-2.32ZM224.52-22.73L224.52-6.47Q225.93-7.03 226.01-11.87L226.01-11.87Q226.01-12.89 226.01-14.21 226.01-15.53 225.99-16.47 225.98-17.41 225.96-18.26L225.96-18.26Q225.86-21.34 225.4-21.94 224.93-22.53 224.52-22.73L224.52-22.73ZM215.51-8.2L215.51-8.2Q215.51-7.18 215.73-6.2 215.95-5.22 216.39-4.49L216.39-4.49Q217.36-2.95 219.15-2.95L219.15-2.95Q220.49-2.95 221.37-4.05L221.37-4.05Q222.2-5.13 222.2-6.81L222.2-6.81 222.2-14.77Q220.63-13.87 218.19-13.53L218.19-13.53Q215.51-13.11 215.51-8.2ZM211.85-2.71L211.85-2.71Q212.09-2.88 212.09-3.15L212.09-3.15Q212.09-3.52 211.75-4.17L211.75-4.17Q210.53-6.42 210.53-7.86 210.53-9.3 210.64-9.94 210.75-10.57 210.93-11.02 211.11-11.47 211.34-11.82 211.58-12.16 211.75-12.43L211.75-12.43Q212.06-12.99 212.06-13.2 212.06-13.4 211.85-13.55L211.85-13.55Q210.84-13.09 210.38-12.45L210.38-12.45Q209.55-11.33 209.16-9.55L209.16-9.55Q209.06-9.03 207.45-8.3L207.45-8.3Q209.01-7.59 209.16-7.06L209.16-7.06Q209.99-4.15 211.85-2.71ZM241.87-0.29L241.87-0.29Q240.75 0.49 239.32 0.49 237.89 0.49 237.2-0.15 236.5-0.78 236.5-1.37L236.5-1.37Q236.5-2.17 236.84-2.64L236.84-2.64Q237.38-2.22 238.21-2.22L238.21-2.22Q239.63-2.22 240.24-3.86L240.24-3.86 240.24-11.38Q240.24-12.45 239.8-12.94L239.8-12.94Q239.09-13.67 237.26-14.58L237.26-14.58Q238.97-15.36 239.46-15.84L239.46-15.84Q240.24-16.65 240.24-17.82L240.24-17.82 240.24-31.62Q240.24-34.4 237.97-34.4L237.97-34.4Q237.14-34.4 236.6-33.98L236.6-33.98Q236.26-34.45 236.26-34.95 236.26-35.45 236.51-35.91 236.77-36.38 237.31-36.77L237.31-36.77Q238.45-37.6 240.21-37.6 241.97-37.6 242.95-37.38L242.95-37.38Q244.29-39.06 245.97-39.06L245.97-39.06Q248.42-39.06 248.42-36.43L248.42-36.43 248.42-17.82Q248.42-16.65 248.93-16.14L248.93-16.14Q249.68-15.36 251.39-14.58L251.39-14.58Q249.56-13.67 249.1-13.21L249.1-13.21Q248.42-12.45 248.42-11.38L248.42-11.38 248.42-3.86Q249-2.22 250.44-2.22L250.44-2.22Q251.27-2.22 251.81-2.64L251.81-2.64Q252.15-2.17 252.15-1.48 252.15-0.78 251.45-0.15 250.76 0.49 249.37 0.49 247.98 0.49 246.78-0.29L246.78-0.29Q245.78 0.49 244.4 0.49 243.02 0.49 241.87-0.29ZM242.58-8.08L242.58-6.49Q243.68-7.2 243.87-9.59L243.87-9.59Q243.95-10.64 243.97-11.94 244-13.23 244.01-13.78 244.02-14.33 244.02-14.6L244.02-14.6 244.02-16.8Q244.02-17.7 244-18.85L244-18.85 244-21.24Q243.92-27.71 243.75-28.44L243.75-28.44Q243.41-29.98 242.58-30.52L242.58-30.52 242.58-22.29Q242.58-17.24 242.47-16.66 242.36-16.09 242.29-15.82L242.29-15.82Q242.07-15.06 240.63-14.58L240.63-14.58Q242.09-14.06 242.29-13.35L242.29-13.35Q242.58-12.18 242.58-8.08L242.58-8.08ZM259.79-0.29L259.79-0.29Q258.67 0.49 257.24 0.49 255.81 0.49 255.11-0.15 254.42-0.78 254.42-1.37L254.42-1.37Q254.42-2.17 254.76-2.64L254.76-2.64Q255.3-2.22 256.13-2.22L256.13-2.22Q257.54-2.22 258.15-3.86L258.15-3.86 258.15-11.38Q258.15-12.45 257.71-12.94L257.71-12.94Q257.01-13.67 255.18-14.58L255.18-14.58Q256.88-15.36 257.37-15.84L257.37-15.84Q258.15-16.65 258.15-17.82L258.15-17.82 258.15-31.62Q258.15-34.4 255.88-34.4L255.88-34.4Q255.05-34.4 254.52-33.98L254.52-33.98Q254.17-34.45 254.17-34.95 254.17-35.45 254.43-35.91 254.69-36.38 255.22-36.77L255.22-36.77Q256.37-37.6 258.13-37.6 259.89-37.6 260.86-37.38L260.86-37.38Q262.21-39.06 263.89-39.06L263.89-39.06Q266.33-39.06 266.33-36.43L266.33-36.43 266.33-17.82Q266.33-16.65 266.85-16.14L266.85-16.14Q267.6-15.36 269.31-14.58L269.31-14.58Q267.48-13.67 267.02-13.21L267.02-13.21Q266.33-12.45 266.33-11.38L266.33-11.38 266.33-3.86Q266.92-2.22 268.36-2.22L268.36-2.22Q269.19-2.22 269.73-2.64L269.73-2.64Q270.07-2.17 270.07-1.48 270.07-0.78 269.37-0.15 268.68 0.49 267.28 0.49 265.89 0.49 264.7-0.29L264.7-0.29Q263.7 0.49 262.32 0.49 260.94 0.49 259.79-0.29ZM260.5-8.08L260.5-6.49Q261.6-7.2 261.79-9.59L261.79-9.59Q261.86-10.64 261.89-11.94 261.91-13.23 261.93-13.78 261.94-14.33 261.94-14.6L261.94-14.6 261.94-16.8Q261.94-17.7 261.91-18.85L261.91-18.85 261.91-21.24Q261.84-27.71 261.67-28.44L261.67-28.44Q261.33-29.98 260.5-30.52L260.5-30.52 260.5-22.29Q260.5-17.24 260.39-16.66 260.28-16.09 260.2-15.82L260.2-15.82Q259.98-15.06 258.54-14.58L258.54-14.58Q260.01-14.06 260.2-13.35L260.2-13.35Q260.5-12.18 260.5-8.08L260.5-8.08ZM294.41-7.37L294.41-7.37Q294.94-8.4 296.38-8.4L296.38-8.4Q297.36-8.4 297.9-7.59L297.9-7.59Q298.34-6.96 298.34-6.04 298.34-5.13 297.87-4.2 297.41-3.27 296.6-2.51 295.8-1.76 294.76-1.17 293.72-0.59 292.55-0.2L292.55-0.2Q290.13 0.61 287.52 0.61 284.91 0.61 282.63-0.26 280.34-1.12 278.71-2.69L278.71-2.69Q275.51-5.76 274.8-11.13L274.8-11.13Q274.63-12.33 274.24-12.84L274.24-12.84Q273.51-13.75 271.82-14.58L271.82-14.58Q273.95-15.53 274.53-17.63L274.53-17.63Q274.7-18.21 274.8-18.8L274.8-18.8Q275.41-23.1 279.15-26.12L279.15-26.12Q282.76-29.05 287.23-29.05L287.23-29.05Q291.87-29.05 295.26-25.78L295.26-25.78Q298.78-22.41 298.78-17.5L298.78-17.5Q298.78-17.33 298.76-17.16 298.75-16.99 298.78-16.85L298.78-16.85Q298.83-16.53 299.17-16.48L299.17-16.48Q299.61-15.92 299.61-15.28L299.61-15.28Q299.61-13.82 298.04-13.55L298.04-13.55Q297.65-13.48 296.82-13.35L296.82-13.35 283.05-11.16 283.05-8.81Q283.05-5.98 284.76-4.32L284.76-4.32Q286.37-2.73 288.84-2.73L288.84-2.73Q291.45-2.73 293.04-3.81L293.04-3.81Q294.53-4.83 294.53-6.49L294.53-6.49Q294.53-6.88 294.41-7.37ZM283.05-14.11L290.13-15.26 290.13-22.09Q290.13-23.71 289.5-24.46L289.5-24.46Q288.38-25.76 287.28-25.76 286.18-25.76 285.45-25.43 284.71-25.1 284.18-24.39L284.18-24.39Q283.05-22.9 283.05-19.75L283.05-19.75 283.05-14.11ZM292.23-15.63L293.75-15.87 293.75-16.63Q293.75-21.17 292.99-22.12L292.99-22.12Q292.65-22.53 292.23-22.73L292.23-22.73 292.23-15.63ZM279.07-6.47L279.07-6.47Q279.42-6.74 279.42-7.08L279.42-7.08Q279.42-7.62 279.2-8.45L279.2-8.45Q278.2-12.28 278.2-13.78 278.2-15.28 278.29-16.13 278.39-16.97 278.56-17.82L278.56-17.82Q278.85-19.48 279.2-20.75L279.2-20.75Q279.42-21.58 279.42-21.88L279.42-21.88Q279.42-22.46 279.07-22.73L279.07-22.73Q278.05-21.51 277.51-19.46 276.97-17.41 276.63-15.84L276.63-15.84Q276.51-15.19 275.19-14.58L275.19-14.58Q276.51-13.96 276.63-13.35L276.63-13.35Q277.54-9.23 278.12-8.11 278.71-6.98 279.07-6.47ZM307.34-0.29L307.34-0.29Q306.22 0.49 304.78 0.49 303.34 0.49 302.69-0.18 302.05-0.85 302.05-1.46L302.05-1.46Q302.05-2.27 302.31-2.64L302.31-2.64Q302.85-2.22 303.68-2.22L303.68-2.22Q305.24-2.22 305.71-3.74L305.71-3.74 305.71-11.13Q305.71-12.26 305.27-12.79L305.27-12.79Q304.49-13.75 302.73-14.6L302.73-14.6Q305.71-15.97 305.71-18.8L305.71-18.8 305.71-21.36Q305.71-23.44 304.29-23.61L304.29-23.61Q303.88-23.66 303.24-23.66 302.61-23.66 302.07-23.24L302.07-23.24Q301.73-23.71 301.73-24.21 301.73-24.71 301.98-25.33 302.24-25.95 302.78-26.51L302.78-26.51Q304.05-27.83 305.74-27.83 307.44-27.83 308.56-27.29L308.56-27.29Q309.91-28.81 311.44-28.81L311.44-28.81Q313.84-28.81 313.84-26.17L313.84-26.17 313.84-22.83Q316.28-28.83 321.6-28.83L321.6-28.83Q323.99-28.83 325.48-27.37L325.48-27.37Q327.02-25.88 327.02-23.24L327.02-23.24 327.02-22.9Q327.02-22.73 326.97-22.2 326.92-21.68 327.01-21.14 327.09-20.61 327.29-20.26L327.29-20.26Q327.56-19.75 328.29-19.46L328.29-19.46Q328.12-18.8 327.5-18.27 326.87-17.75 326.12-17.75L326.12-17.75 325.65-17.75Q324.7-16.55 322.99-16.06L322.99-16.06Q322.5-15.92 321.93-15.92 321.36-15.92 320.93-16.17 320.5-16.43 320.45-16.72L320.45-16.72Q320.92-16.94 320.92-17.6L320.92-17.6 320.92-17.72Q320.72-17.68 320.58-17.68L320.58-17.68 320.33-17.68Q319.53-17.68 318.88-18.29 318.23-18.9 318.04-19.82L318.04-19.82Q319.35-19.78 320.33-20.8L320.33-20.8Q321.21-21.7 321.21-22.66L321.21-22.66Q321.21-24.9 319.26-24.9L319.26-24.9Q317.57-24.9 315.86-22.22L315.86-22.22Q314.25-19.75 313.84-17.11L313.84-17.11 313.84-3.91Q314.11-3.05 314.67-2.64 315.23-2.22 316.21-2.22 317.18-2.22 317.72-2.64L317.72-2.64Q317.99-2.27 317.99-1.56 317.99-0.85 317.34-0.18 316.69 0.49 315.17 0.49 313.64 0.49 312.25-0.34L312.25-0.34Q311.27 0.49 309.88 0.49 308.49 0.49 307.34-0.29ZM309.45-11.88Q309.47-12.7 309.48-13.26 309.49-13.82 309.49-14.16L309.49-14.16 309.49-14.82Q309.49-15.19 309.48-15.76 309.47-16.33 309.45-17.05 309.44-17.77 309.42-18.46L309.42-18.46Q309.27-21 308.87-21.72 308.47-22.44 308.05-22.71L308.05-22.71 308.05-21.12Q308.05-17.02 307.87-16.3 307.68-15.58 307.28-15.22 306.88-14.87 306.1-14.6L306.1-14.6Q307.56-14.09 307.76-13.35L307.76-13.35Q308.05-12.18 308.05-8.08L308.05-8.08 308.05-6.49Q309.17-7.23 309.32-9.47L309.32-9.47Q309.44-11.06 309.45-11.88ZM358.34-25.17L358.34-25.17Q357.8-25.51 356.63-25.51L356.63-25.51Q354.29-25.51 353.09-22.34L353.09-22.34 352.34-20.21Q351.51-17.9 351.49-17.04 351.48-16.19 351.79-15.66 352.09-15.14 353.17-14.58L353.17-14.58Q350.53-13.84 349.58-12.11L349.58-12.11Q349.28-11.57 349.06-10.99L349.06-10.99 345.01 0.02Q342.64 6.84 340.62 9.25L340.62 9.25Q338.76 11.47 335.98 11.47L335.98 11.47Q333.85 11.47 331.97 10.11L331.97 10.11Q329.83 8.57 329.83 6.49L329.83 6.49Q329.83 5.2 330.51 4.53 331.19 3.86 331.77 3.86 332.34 3.86 332.56 3.87 332.78 3.88 333 3.96L333 3.96Q333.44 4.15 333.83 4.83L333.83 4.83Q333.32 5.81 334.49 6.98L334.49 6.98Q335.59 8.13 336.55 8.13 337.52 8.13 338.16 7.76 338.81 7.4 339.32 6.64L339.32 6.64Q340.45 4.98 340.45 1.88L340.45 1.88Q340.45 0.2 339.54-1.83L339.54-1.83Q339.3-2.51 338.96-3.27L338.96-3.27 335.49-11.08Q334.93-12.33 333.79-13.29 332.66-14.26 331.24-14.58L331.24-14.58Q332.93-15.43 332.93-16.82L332.93-16.82Q332.93-17.82 332.12-19.78L332.12-19.78 330.68-23.24Q330.05-24.66 329.63-25.02L329.63-25.02Q328.9-25.61 327.93-25.61 326.97-25.61 326.43-25.2L326.43-25.2Q326.14-25.49 326.13-26.05 326.11-26.61 326.26-26.99 326.41-27.37 326.75-27.66L326.75-27.66Q327.48-28.32 328.86-28.32 330.24-28.32 331.46-27.44L331.46-27.44Q332.46-28.32 333.9-28.32 335.34-28.32 336.44-27.51L336.44-27.51Q337.54-28.32 338.91-28.32 340.28-28.32 341.07-27.67 341.86-27.03 341.89-26.39L341.89-26.39Q341.91-25.44 341.57-25.1L341.57-25.1Q340.98-25.54 340.35-25.54 339.71-25.54 339.31-25.17 338.91-24.8 338.96-23.97L338.96-23.97 344.6-8.74 349.94-24.39Q349.67-25.63 348.16-25.63L348.16-25.63Q347.21-25.63 346.35-25.17L346.35-25.17Q346.11-25.63 346.12-26.37 346.13-27.1 346.81-27.71 347.48-28.32 348.64-28.32 349.8-28.32 350.63-27.54L350.63-27.54Q351.51-28.32 352.6-28.32 353.7-28.32 354.61-27.64L354.61-27.64Q355.44-28.32 356.45-28.32 357.46-28.32 358.06-27.73 358.66-27.15 358.63-26.51L358.63-26.51Q358.59-25.54 358.34-25.17ZM339.32-12.08L334.83-22.73Q334.27-22.36 334.28-21.8 334.29-21.24 334.33-20.94 334.37-20.63 334.46-20.21L334.46-20.21Q334.68-19.43 335.36-17.91 336.03-16.38 336.06-16 336.1-15.63 335.81-15.17 335.51-14.72 335.1-14.58L335.1-14.58Q336.66-14.28 337.03-13.48L337.03-13.48Q337.2-13.13 337.52-12.4L337.52-12.4 339.18-8.69Q339.66-7.57 340.2-6.47L340.2-6.47Q341.2-7.69 339.32-12.08L339.32-12.08ZM378.4-32.3L378.4-32.3Q377.16-32.3 376-32.96 374.84-33.62 374.23-34.72L374.23-34.72Q373.57-35.84 372.47-36.43L372.47-36.43Q372.13-36.6 371.69-36.79L371.69-36.79 372.52-37.3Q373.69-38.04 374.25-39.09 374.82-40.14 375.95-40.73 377.09-41.33 378.4-41.33L378.4-41.33Q381.14-41.33 382.36-39.04L382.36-39.04Q383.19-37.52 384.92-36.79L384.92-36.79Q384.56-36.57 384.2-36.4 383.85-36.23 383.53-36.01L383.53-36.01Q382.82-35.52 382.27-34.57 381.73-33.62 380.69-32.96 379.65-32.3 378.4-32.3ZM377.11-35.29Q376.96-35.55 376.88-35.9 376.79-36.25 376.79-37.16 376.79-38.06 377.72-39.45L377.72-39.45Q376.82-39.45 376.45-39.12 376.09-38.79 375.9-38.56 375.72-38.33 375.59-38.1 375.45-37.87 375.26-37.6L375.26-37.6Q374.79-36.94 374.5-36.79L374.5-36.79Q374.89-36.57 375.22-36.1 375.55-35.62 375.99-35.11L375.99-35.11Q376.65-34.3 377.72-34.3L377.72-34.3Q377.57-34.57 377.42-34.8 377.26-35.03 377.11-35.29ZM375.96-0.29L375.96-0.29Q374.84 0.49 373.41 0.49 371.98 0.49 371.29-0.15 370.59-0.78 370.59-1.37L370.59-1.37Q370.59-2.17 370.93-2.64L370.93-2.64Q371.47-2.22 372.52-2.22 373.57-2.22 374.33-3.59L374.33-3.59 374.33-11.38Q374.33-12.45 373.89-12.94L373.89-12.94Q373.18-13.67 371.35-14.58L371.35-14.58Q373.06-15.36 373.52-15.82L373.52-15.82Q374.33-16.63 374.33-17.8L374.33-17.8 374.33-21.36Q374.33-23.44 372.91-23.61L372.91-23.61Q372.5-23.66 371.86-23.66 371.23-23.66 370.69-23.24L370.69-23.24Q370.35-23.71 370.35-24.21 370.35-24.71 370.6-25.33 370.86-25.95 371.4-26.51L371.4-26.51Q372.67-27.83 374.33-27.83 375.99-27.83 377.33-27.25L377.33-27.25Q378.53-28.81 380.07-28.81L380.07-28.81Q382.58-28.81 382.58-26.17L382.58-26.17 382.58-17.8Q382.58-16.63 383.09-16.11L383.09-16.11Q383.85-15.36 385.56-14.58L385.56-14.58Q383.73-13.67 383.26-13.21L383.26-13.21Q382.58-12.45 382.58-11.38L382.58-11.38 382.58-3.52Q383.39-2.22 384.41-2.22 385.44-2.22 385.97-2.64L385.97-2.64Q386.32-2.17 386.32-1.48 386.32-0.78 385.62-0.15 384.92 0.49 383.53 0.49 382.14 0.49 380.94-0.29L380.94-0.29Q379.94 0.49 378.53 0.49 377.11 0.49 375.96-0.29ZM378.08-11.87Q378.09-12.7 378.1-13.26 378.11-13.82 378.11-14.16L378.11-14.16 378.11-14.82Q378.11-15.19 378.1-15.77 378.09-16.36 378.08-17.07 378.06-17.77 378.04-18.46L378.04-18.46Q377.94-20.14 377.79-20.78L377.79-20.78Q377.5-22.19 376.67-22.73L376.67-22.73 376.67-21.14Q376.67-17.02 376.49-16.3 376.31-15.58 375.9-15.22 375.5-14.87 374.72-14.6L374.72-14.6Q376.18-14.09 376.38-13.35L376.38-13.35Q376.67-12.18 376.67-8.06L376.67-8.06 376.67-6.47Q377.79-7.2 377.94-9.47L377.94-9.47Q378.06-11.04 378.08-11.87ZM393.51-0.29L393.51-0.29Q392.39 0.49 390.95 0.49 389.51 0.49 388.86-0.18 388.22-0.85 388.22-1.46L388.22-1.46Q388.22-2.27 388.49-2.64L388.49-2.64Q389.02-2.22 389.85-2.22L389.85-2.22Q391.42-2.22 391.88-3.74L391.88-3.74 391.88-11.33Q391.88-12.4 391.42-12.89L391.42-12.89Q390.71-13.7 388.9-14.58L388.9-14.58Q390.61-15.36 391.07-15.82L391.07-15.82Q391.88-16.63 391.88-17.8L391.88-17.8 391.88-21.36Q391.88-23.44 390.46-23.61L390.46-23.61Q390.05-23.66 389.41-23.66 388.78-23.66 388.24-23.24L388.24-23.24Q387.9-23.71 387.9-24.21 387.9-24.71 388.16-25.33 388.41-25.95 388.92-26.51L388.92-26.51Q390.22-27.83 391.92-27.83 393.61-27.83 394.74-27.29L394.74-27.29Q396.08-28.81 397.47-28.81 398.86-28.81 399.4-28.16 399.94-27.51 399.94-26.17L399.94-26.17 399.94-23.88Q401.21-26.15 403.4-27.48 405.6-28.81 408.07-28.81 410.53-28.81 412.03-28.16 413.53-27.51 414.51-26.32L414.51-26.32Q416.42-23.95 416.42-19.43L416.42-19.43 416.42-17.82Q416.42-16.65 416.93-16.14L416.93-16.14Q417.68-15.36 419.39-14.58L419.39-14.58Q417.56-13.67 417.1-13.21L417.1-13.21Q416.42-12.45 416.42-11.38L416.42-11.38 416.42-3.74Q416.88-2.22 418.44-2.22L418.44-2.22Q419.27-2.22 419.81-2.64L419.81-2.64Q420.08-2.27 420.08-1.56 420.08-0.85 419.43-0.18 418.78 0.49 417.44 0.49 416.1 0.49 415-0.27L415-0.27Q414.02 0.49 412.72 0.49 411.41 0.49 410.38-0.24L410.38-0.24Q409.31 0.49 408.09 0.49 406.87 0.49 406.16-0.12 405.45-0.73 405.45-1.88L405.45-1.88Q405.45-2.42 405.82-2.73L405.82-2.73Q406.38-2.29 406.94-2.29L406.94-2.29Q408.02-2.29 408.48-3.49L408.48-3.49 408.48-18.04Q408.48-22.78 406.16-23.54L406.16-23.54Q405.4-23.78 404.53-23.78 403.65-23.78 402.89-23.43 402.13-23.07 401.52-22.44L401.52-22.44Q400.18-21.02 399.94-19.07L399.94-19.07 399.94-3.49Q400.4-2.29 401.47-2.29L401.47-2.29Q402.04-2.29 402.6-2.73L402.6-2.73Q402.96-2.42 402.96-1.57 402.96-0.73 402.25-0.12 401.55 0.49 400.39 0.49 399.23 0.49 398.28-0.24L398.28-0.24Q397.35 0.49 396 0.49 394.66 0.49 393.51-0.29ZM410.82-15.77L410.82-6.47Q412.04-6.93 412.17-9.67L412.17-9.67Q412.31-12.4 412.31-14.82 412.31-17.24 412.12-18.81 411.92-20.39 411.56-21.28 411.19-22.17 410.69-22.57 410.19-22.97 409.6-23.27L409.6-23.27Q410.53-21.07 410.68-19.26 410.82-17.46 410.82-15.77L410.82-15.77ZM395.63-11.87Q395.64-12.67 395.65-13.22 395.66-13.77 395.66-14.11 395.66-14.45 395.66-14.81 395.66-15.16 395.65-15.75 395.64-16.33 395.63-17.04 395.61-17.75 395.57-18.43L395.57-18.43Q395.49-20.12 395.35-20.75L395.35-20.75Q395.05-22.17 394.22-22.71L394.22-22.71 394.22-21.12Q394.22-17.02 394.04-16.3 393.86-15.58 393.45-15.21 393.05-14.84 392.27-14.58L392.27-14.58Q393.73-14.06 393.93-13.35L393.93-13.35Q394.22-12.18 394.22-8.08L394.22-8.08 394.22-6.49Q395.35-7.23 395.52-9.47L395.52-9.47Q395.61-11.06 395.63-11.87ZM463.58-25.17L463.58-25.17Q463.04-25.51 461.87-25.51L461.87-25.51Q459.53-25.51 458.33-22.34L458.33-22.34 457.57-20.21Q456.74-17.9 456.73-17.04 456.72-16.19 457.02-15.66 457.33-15.14 458.4-14.58L458.4-14.58Q455.77-13.84 454.81-12.11L454.81-12.11Q454.52-11.57 454.3-10.99L454.3-10.99 450.25 0.02Q447.88 6.84 445.85 9.25L445.85 9.25Q444 11.47 441.21 11.47L441.21 11.47Q439.09 11.47 437.21 10.11L437.21 10.11Q435.06 8.57 435.06 6.49L435.06 6.49Q435.06 5.2 435.75 4.53 436.43 3.86 437 3.86 437.58 3.86 437.8 3.87 438.02 3.88 438.24 3.96L438.24 3.96Q438.68 4.15 439.07 4.83L439.07 4.83Q438.55 5.81 439.73 6.98L439.73 6.98Q440.82 8.13 441.79 8.13 442.75 8.13 443.4 7.76 444.05 7.4 444.56 6.64L444.56 6.64Q445.68 4.98 445.68 1.88L445.68 1.88Q445.68 0.2 444.78-1.83L444.78-1.83Q444.54-2.51 444.19-3.27L444.19-3.27 440.73-11.08Q440.16-12.33 439.03-13.29 437.89-14.26 436.48-14.58L436.48-14.58Q438.16-15.43 438.16-16.82L438.16-16.82Q438.16-17.82 437.36-19.78L437.36-19.78 435.92-23.24Q435.28-24.66 434.87-25.02L434.87-25.02Q434.13-25.61 433.17-25.61 432.21-25.61 431.67-25.2L431.67-25.2Q431.38-25.49 431.36-26.05 431.35-26.61 431.5-26.99 431.64-27.37 431.99-27.66L431.99-27.66Q432.72-28.32 434.1-28.32 435.48-28.32 436.7-27.44L436.7-27.44Q437.7-28.32 439.14-28.32 440.58-28.32 441.68-27.51L441.68-27.51Q442.78-28.32 444.14-28.32 445.51-28.32 446.31-27.67 447.1-27.03 447.12-26.39L447.12-26.39Q447.15-25.44 446.81-25.1L446.81-25.1Q446.22-25.54 445.58-25.54 444.95-25.54 444.55-25.17 444.14-24.8 444.19-23.97L444.19-23.97 449.83-8.74 455.18-24.39Q454.91-25.63 453.4-25.63L453.4-25.63Q452.45-25.63 451.59-25.17L451.59-25.17Q451.35-25.63 451.36-26.37 451.37-27.1 452.04-27.71 452.71-28.32 453.87-28.32 455.03-28.32 455.86-27.54L455.86-27.54Q456.74-28.32 457.84-28.32 458.94-28.32 459.84-27.64L459.84-27.64Q460.67-28.32 461.69-28.32 462.7-28.32 463.3-27.73 463.9-27.15 463.87-26.51L463.87-26.51Q463.82-25.54 463.58-25.17ZM444.56-12.08L440.07-22.73Q439.51-22.36 439.52-21.8 439.53-21.24 439.57-20.94 439.6-20.63 439.7-20.21L439.7-20.21Q439.92-19.43 440.59-17.91 441.26-16.38 441.3-16 441.34-15.63 441.04-15.17 440.75-14.72 440.34-14.58L440.34-14.58Q441.9-14.28 442.26-13.48L442.26-13.48Q442.44-13.13 442.75-12.4L442.75-12.4 444.41-8.69Q444.9-7.57 445.44-6.47L445.44-6.47Q446.44-7.69 444.56-12.08L444.56-12.08ZM470.05-2.73Q468.51-4.3 467.62-6.45 466.72-8.59 466.53-10.13 466.33-11.67 466.2-12.11 466.07-12.55 465.75-12.94L465.75-12.94Q465.11-13.75 463.43-14.58L463.43-14.58Q465.55-15.53 466.14-17.63L466.14-17.63Q466.31-18.21 466.41-18.8L466.41-18.8Q467.04-23.17 470.63-26.11 474.22-29.05 479.01-29.05L479.01-29.05Q483.99-29.05 487.57-26.07L487.57-26.07Q491.07-23.17 491.7-18.8L491.7-18.8Q491.92-17.26 492.36-16.55L492.36-16.55Q493.19-15.26 494.68-14.58L494.68-14.58Q493.02-13.77 492.53-13.16L492.53-13.16Q491.87-12.3 491.7-11.13L491.7-11.13Q490.92-5.37 487.7-2.38 484.47 0.61 479.1 0.61L479.1 0.61Q473.34 0.61 470.05-2.73L470.05-2.73ZM483.2-19.51Q483.2-25.61 479.05-25.61 474.9-25.61 474.9-19.51L474.9-19.51 474.9-8.69Q474.9-2.83 479.03-2.83L479.03-2.83Q483.2-2.83 483.2-8.69L483.2-8.69 483.2-19.51ZM485.55-22.73L485.55-6.47Q486.77-6.93 486.89-9.67L486.89-9.67Q487.04-12.4 487.04-13.73 487.04-15.06 487.03-15.95 487.01-16.85 486.99-17.8L486.99-17.8Q486.89-21.36 486.43-21.95 485.96-22.53 485.55-22.73L485.55-22.73ZM470.92-6.47L470.92-6.47Q471.27-6.74 471.27-7.08L471.27-7.08Q471.27-7.62 471.05-8.45L471.05-8.45Q470.05-12.28 470.05-13.78 470.05-15.28 470.14-16.13 470.24-16.97 470.39-17.82L470.39-17.82Q470.7-19.48 471.05-20.75L471.05-20.75Q471.27-21.58 471.27-21.88L471.27-21.88Q471.27-22.46 470.92-22.73L470.92-22.73Q469.9-21.51 469.36-19.46 468.82-17.41 468.48-15.84L468.48-15.84Q468.36-15.19 467.04-14.58L467.04-14.58Q468.36-13.96 468.48-13.35L468.48-13.35Q469.39-9.23 469.97-8.11 470.56-6.98 470.92-6.47ZM520.95 0.49L520.95 0.49Q517.5 0.49 517.24-4.27L517.24-4.27Q515.99-2.03 513.88-0.71 511.77 0.61 509.34 0.61 506.91 0.61 505.39-0.05 503.88-0.71 502.88-1.95L502.88-1.95Q500.93-4.39 500.93-8.89L500.93-8.89 500.93-10.4Q500.93-13.23 497.95-14.6L497.95-14.6Q499.71-15.45 500.19-16.04L500.19-16.04Q500.93-16.94 500.93-18.07L500.93-18.07 500.93-21.36Q500.93-23.44 499.51-23.61L499.51-23.61Q499.1-23.66 498.46-23.66 497.83-23.66 497.29-23.24L497.29-23.24Q496.95-23.71 496.95-24.21 496.95-24.71 497.2-25.33 497.46-25.95 498-26.51L498-26.51Q499.27-27.83 500.95-27.83 502.64-27.83 504.12-27.27L504.12-27.27Q505.2-28.81 506.66-28.81L506.66-28.81Q509.18-28.81 509.18-26.17L509.18-26.17 509.18-10.28Q509.18-5.64 511.33-4.71L511.33-4.71Q512.01-4.42 512.85-4.42 513.7-4.42 514.38-4.77 515.06-5.13 515.58-5.74L515.58-5.74Q516.53-6.93 516.8-9.01L516.8-9.01 516.8-21.36Q516.8-24.15 514.53-24.15L514.53-24.15Q513.7-24.15 513.16-23.73L513.16-23.73Q512.82-24.19 512.82-24.69 512.82-25.2 513.07-25.74 513.33-26.29 513.87-26.76L513.87-26.76Q515.06-27.83 516.78-27.83 518.5-27.83 519.99-27.27L519.99-27.27Q521.07-28.81 522.53-28.81L522.53-28.81Q525.05-28.81 525.05-26.17L525.05-26.17 525.05-18.07Q525.05-16.94 525.49-16.41L525.49-16.41Q526.27-15.45 528.03-14.6L528.03-14.6Q525.05-13.23 525.05-10.4L525.05-10.4 525.05-4.1Q525.51-2.22 527.07-2.22L527.07-2.22Q527.9-2.22 528.44-2.64L528.44-2.64Q528.78-2.17 528.78-1.48 528.78-0.78 528.09-0.15 527.39 0.49 525.91 0.49 524.44 0.49 523.12-0.29L523.12-0.29Q522.14 0.49 520.95 0.49ZM519.12-22.73L519.12-6.47Q520.53-7.03 520.6-11.87L520.6-11.87Q520.6-12.89 520.6-14.21 520.6-15.53 520.59-16.47 520.58-17.41 520.56-18.26L520.56-18.26Q520.46-21.34 519.99-21.94 519.53-22.53 519.12-22.73L519.12-22.73ZM504.59-11.38L504.52-14.6 504.59-17.82Q504.59-20 504.44-20.7L504.44-20.7Q504.03-22.56 503.27-22.73L503.27-22.73 503.27-21.14Q503.27-17.02 503.09-16.3 502.9-15.58 502.5-15.22 502.1-14.87 501.32-14.6L501.32-14.6Q502.78-14.09 502.98-13.35L502.98-13.35Q503.27-12.18 503.27-8.06L503.27-8.06 503.27-6.47Q504-6.64 504.47-8.64L504.47-8.64Q504.59-9.2 504.59-11.38L504.59-11.38ZM536.47-0.29L536.47-0.29Q535.35 0.49 533.91 0.49 532.47 0.49 531.82-0.18 531.17-0.85 531.17-1.46L531.17-1.46Q531.17-2.27 531.44-2.64L531.44-2.64Q531.98-2.22 532.81-2.22L532.81-2.22Q534.37-2.22 534.84-3.74L534.84-3.74 534.84-11.13Q534.84-12.26 534.4-12.79L534.4-12.79Q533.61-13.75 531.86-14.6L531.86-14.6Q534.84-15.97 534.84-18.8L534.84-18.8 534.84-21.36Q534.84-23.44 533.42-23.61L533.42-23.61Q533-23.66 532.37-23.66 531.73-23.66 531.2-23.24L531.2-23.24Q530.86-23.71 530.86-24.21 530.86-24.71 531.11-25.33 531.37-25.95 531.91-26.51L531.91-26.51Q533.18-27.83 534.87-27.83 536.57-27.83 537.69-27.29L537.69-27.29Q539.03-28.81 540.57-28.81L540.57-28.81Q542.97-28.81 542.97-26.17L542.97-26.17 542.97-22.83Q545.41-28.83 550.73-28.83L550.73-28.83Q553.12-28.83 554.61-27.37L554.61-27.37Q556.15-25.88 556.15-23.24L556.15-23.24 556.15-22.9Q556.15-22.73 556.1-22.2 556.05-21.68 556.14-21.14 556.22-20.61 556.42-20.26L556.42-20.26Q556.69-19.75 557.42-19.46L557.42-19.46Q557.25-18.8 556.62-18.27 556-17.75 555.25-17.75L555.25-17.75 554.78-17.75Q553.83-16.55 552.12-16.06L552.12-16.06Q551.63-15.92 551.06-15.92 550.48-15.92 550.06-16.17 549.63-16.43 549.58-16.72L549.58-16.72Q550.05-16.94 550.05-17.6L550.05-17.6 550.05-17.72Q549.85-17.68 549.7-17.68L549.7-17.68 549.46-17.68Q548.65-17.68 548.01-18.29 547.36-18.9 547.16-19.82L547.16-19.82Q548.48-19.78 549.46-20.8L549.46-20.8Q550.34-21.7 550.34-22.66L550.34-22.66Q550.34-24.9 548.38-24.9L548.38-24.9Q546.7-24.9 544.99-22.22L544.99-22.22Q543.38-19.75 542.97-17.11L542.97-17.11 542.97-3.91Q543.23-3.05 543.8-2.64 544.36-2.22 545.33-2.22 546.31-2.22 546.85-2.64L546.85-2.64Q547.12-2.27 547.12-1.56 547.12-0.85 546.47-0.18 545.82 0.49 544.3 0.49 542.77 0.49 541.38-0.34L541.38-0.34Q540.4 0.49 539.01 0.49 537.62 0.49 536.47-0.29ZM538.58-11.88Q538.59-12.7 538.61-13.26 538.62-13.82 538.62-14.16L538.62-14.16 538.62-14.82Q538.62-15.19 538.61-15.76 538.59-16.33 538.58-17.05 538.57-17.77 538.55-18.46L538.55-18.46Q538.4-21 538-21.72 537.59-22.44 537.18-22.71L537.18-22.71 537.18-21.12Q537.18-17.02 537-16.3 536.81-15.58 536.41-15.22 536.01-14.87 535.23-14.6L535.23-14.6Q536.69-14.09 536.89-13.35L536.89-13.35Q537.18-12.18 537.18-8.08L537.18-8.08 537.18-6.49Q538.3-7.23 538.45-9.47L538.45-9.47Q538.57-11.06 538.58-11.88ZM575.58 11.65L575.58 11.65Q574.48 12.45 573.04 12.45 571.6 12.45 570.9 11.82 570.21 11.18 570.21 10.6L570.21 10.6Q570.21 9.79 570.55 9.33L570.55 9.33Q571.09 9.74 571.92 9.74L571.92 9.74Q573.33 9.74 573.94 8.11L573.94 8.11 573.94-11.13Q573.94-12.26 573.48-12.79L573.48-12.79Q572.75-13.7 570.96-14.58L570.96-14.58Q573.94-15.94 573.94-18.8L573.94-18.8 573.94-21.36Q573.94-23.44 572.53-23.61L572.53-23.61Q572.11-23.66 571.48-23.66 570.84-23.66 570.3-23.24L570.3-23.24Q569.96-23.71 569.96-24.21 569.96-24.71 570.22-25.33 570.47-25.95 570.99-26.51L570.99-26.51Q572.28-27.83 573.98-27.83 575.67-27.83 576.8-27.29L576.8-27.29Q578.14-28.81 579.68-28.81L579.68-28.81Q582.19-28.81 582.19-26.17L582.19-26.17 582.19-26Q584.12-27.93 587.22-28.61L587.22-28.61Q588.17-28.81 589.68-28.81 591.18-28.81 592.84-28.37 594.5-27.93 595.72-26.81L595.72-26.81Q598.16-24.56 598.72-18.8L598.72-18.8Q598.97-15.82 601.7-14.58L601.7-14.58Q599.97-13.72 599.5-13.13L599.5-13.13Q598.89-12.3 598.72-11.13L598.72-11.13Q598.01-5.25 595.69-2.44L595.69-2.44Q593.16 0.61 588.35 0.61L588.35 0.61Q584.63 0.61 582.19-1.34L582.19-1.34 582.19 8.06Q582.8 9.74 584.22 9.74L584.22 9.74Q585.05 9.74 585.59 9.33L585.59 9.33Q585.93 9.79 585.93 10.49 585.93 11.18 585.23 11.82 584.54 12.45 583.12 12.45 581.71 12.45 580.56 11.65L580.56 11.65Q579.58 12.45 578.13 12.45 576.68 12.45 575.58 11.65ZM582.17-19.02L582.17-7.74Q582.17-5.76 583.49-4.35L583.49-4.35Q584.78-2.95 586.39-2.95L586.39-2.95Q590.47-2.95 590.47-8.81L590.47-8.81 590.47-19.51Q590.47-22.19 589.52-23.72 588.57-25.24 586.83-25.24L586.83-25.24Q583.73-25.24 582.56-21.83L582.56-21.83Q582.17-20.65 582.17-19.02L582.17-19.02ZM592.81-22.73L592.81-6.47Q594.03-6.93 594.18-9.67L594.18-9.67Q594.3-12.4 594.3-13.73 594.3-15.06 594.29-15.95 594.28-16.85 594.25-17.8L594.25-17.8Q594.16-21.36 593.69-21.95 593.23-22.53 592.81-22.73L592.81-22.73ZM576.24-7.35L576.24 0.63Q577.38-0.15 577.53-2.64L577.53-2.64Q577.58-4.05 577.6-5.91L577.6-5.91Q577.65-10.08 577.66-11.22 577.68-12.35 577.68-13.16L577.68-13.16 577.68-15.09Q577.68-15.48 577.66-16.05 577.65-16.63 577.64-17.3 577.63-17.97 577.58-18.6L577.58-18.6Q577.46-21.02 577.05-21.74 576.65-22.46 576.24-22.73L576.24-22.73 576.24-21.26Q576.24-17.02 576.05-16.3 575.87-15.58 575.47-15.21 575.06-14.84 574.28-14.58L574.28-14.58Q575.75-14.06 575.94-13.35L575.94-13.35Q576.24-12.28 576.24-7.35L576.24-7.35ZM610.39-2.73Q608.85-4.3 607.96-6.45 607.07-8.59 606.87-10.13 606.68-11.67 606.54-12.11 606.41-12.55 606.09-12.94L606.09-12.94Q605.46-13.75 603.77-14.58L603.77-14.58Q605.9-15.53 606.48-17.63L606.48-17.63Q606.65-18.21 606.75-18.8L606.75-18.8Q607.39-23.17 610.98-26.11 614.56-29.05 619.35-29.05L619.35-29.05Q624.33-29.05 627.92-26.07L627.92-26.07Q631.41-23.17 632.04-18.8L632.04-18.8Q632.26-17.26 632.7-16.55L632.7-16.55Q633.53-15.26 635.02-14.58L635.02-14.58Q633.36-13.77 632.87-13.16L632.87-13.16Q632.22-12.3 632.04-11.13L632.04-11.13Q631.26-5.37 628.04-2.38 624.82 0.61 619.45 0.61L619.45 0.61Q613.69 0.61 610.39-2.73L610.39-2.73ZM623.55-19.51Q623.55-25.61 619.4-25.61 615.25-25.61 615.25-19.51L615.25-19.51 615.25-8.69Q615.25-2.83 619.37-2.83L619.37-2.83Q623.55-2.83 623.55-8.69L623.55-8.69 623.55-19.51ZM625.89-22.73L625.89-6.47Q627.11-6.93 627.23-9.67L627.23-9.67Q627.38-12.4 627.38-13.73 627.38-15.06 627.37-15.95 627.36-16.85 627.33-17.8L627.33-17.8Q627.23-21.36 626.77-21.95 626.31-22.53 625.89-22.73L625.89-22.73ZM611.27-6.47L611.27-6.47Q611.61-6.74 611.61-7.08L611.61-7.08Q611.61-7.62 611.39-8.45L611.39-8.45Q610.39-12.28 610.39-13.78 610.39-15.28 610.49-16.13 610.58-16.97 610.73-17.82L610.73-17.82Q611.05-19.48 611.39-20.75L611.39-20.75Q611.61-21.58 611.61-21.88L611.61-21.88Q611.61-22.46 611.27-22.73L611.27-22.73Q610.24-21.51 609.71-19.46 609.17-17.41 608.83-15.84L608.83-15.84Q608.7-15.19 607.39-14.58L607.39-14.58Q608.7-13.96 608.83-13.35L608.83-13.35Q609.73-9.23 610.32-8.11 610.9-6.98 611.27-6.47ZM658.78-7.37L658.78-7.37Q659.31-8.4 660.75-8.4L660.75-8.4Q661.73-8.4 662.27-7.59L662.27-7.59Q662.71-6.96 662.71-6.04 662.71-5.13 662.25-4.2 661.8-3.27 661.05-2.51 660.29-1.76 659.3-1.17 658.31-0.59 657.19-0.2L657.19-0.2Q654.92 0.61 652.45 0.61 649.99 0.61 647.79-0.26 645.59-1.12 644-2.69L644-2.69Q640.81-5.83 640.15-11.13L640.15-11.13Q639.98-12.33 639.59-12.84L639.59-12.84Q638.85-13.75 637.17-14.58L637.17-14.58Q639.76-15.75 640.15-18.8L640.15-18.8Q640.78-23.46 644.3-26.17L644.3-26.17Q647.67-28.81 652.5-28.81L652.5-28.81Q656.68-28.81 659.53-26.27L659.53-26.27Q662.24-23.88 662.24-20.73L662.24-20.73Q662.24-18.95 663.49-18.46L663.49-18.46Q662.75-17.26 661.44-17.26L661.44-17.26Q660.97-17.26 660.58-17.36L660.58-17.36Q659.73-16.11 658.12-15.67L658.12-15.67Q657.6-15.55 657.14-15.55 656.68-15.55 656.04-15.73 655.41-15.92 655.16-16.24L655.16-16.24Q655.87-16.53 655.99-17.7L655.99-17.7Q655.85-17.68 655.72-17.68L655.72-17.68 655.53-17.68Q653.87-17.68 653.48-19.58L653.48-19.58Q655.28-19.58 656.11-20.97L656.11-20.97Q656.41-21.46 656.41-22.17L656.41-22.17Q656.41-23.73 655.41-24.62 654.41-25.51 652.62-25.51L652.62-25.51Q648.5-25.51 648.5-20.19L648.5-20.19 648.5-8.33Q648.5-4.17 651.67-3.08L651.67-3.08Q652.6-2.73 653.77-2.73 654.94-2.73 655.91-3.03 656.87-3.32 657.53-3.83L657.53-3.83Q658.87-4.88 658.87-6.49L658.87-6.49Q658.87-6.98 658.78-7.37ZM644.42-6.47L644.42-6.47Q644.76-6.74 644.76-7.08L644.76-7.08Q644.76-7.62 644.54-8.45L644.54-8.45Q643.54-12.28 643.54-13.78 643.54-15.28 643.64-16.13 643.74-16.97 643.91-17.82L643.91-17.82Q644.2-19.48 644.54-20.75L644.54-20.75Q644.76-21.58 644.76-21.88L644.76-21.88Q644.76-22.46 644.42-22.73L644.42-22.73Q643.39-21.51 642.86-19.46 642.32-17.41 641.98-15.84L641.98-15.84Q641.86-15.21 640.54-14.6L640.54-14.6Q641.86-13.99 641.98-13.35L641.98-13.35Q642.88-9.23 643.47-8.11 644.05-6.98 644.42-6.47ZM670.08-0.29L670.08-0.29Q668.95 0.49 667.53 0.49 666.1 0.49 665.4-0.15 664.71-0.78 664.71-1.37L664.71-1.37Q664.71-2.17 665.05-2.64L665.05-2.64Q665.58-2.22 666.41-2.22L666.41-2.22Q667.83-2.22 668.44-3.86L668.44-3.86 668.44-11.35Q668.44-12.43 668-12.92L668-12.92Q667.32-13.67 665.46-14.58L665.46-14.58Q667.17-15.36 667.64-15.82L667.64-15.82Q668.44-16.63 668.44-17.8L668.44-17.8 668.44-31.62Q668.44-34.4 666.17-34.4L666.17-34.4Q665.34-34.4 664.8-33.98L664.8-33.98Q664.46-34.45 664.46-34.95 664.46-35.45 664.72-35.91 664.97-36.38 665.51-36.77L665.51-36.77Q666.66-37.6 668.42-37.6 670.17-37.6 671.15-37.38L671.15-37.38Q672.49-39.06 674.18-39.06L674.18-39.06Q676.69-39.06 676.69-36.43L676.69-36.43 676.69-15.99 683.75-22.51Q685.36-24.17 685.36-24.9 685.36-25.63 684.43-25.63 683.5-25.63 682.7-25.17L682.7-25.17Q682.43-25.61 682.43-26.31 682.43-27 683.16-27.66 683.89-28.32 685.24-28.32 686.58-28.32 687.61-27.49L687.61-27.49Q688.56-28.32 689.68-28.32 690.8-28.32 691.63-27.66L691.63-27.66Q692.46-28.32 693.59-28.32 694.71-28.32 695.46-27.73 696.2-27.15 696.2-26.17L696.2-26.17Q696.2-25.27 695.96-24.93L695.96-24.93Q695.3-25.59 694.33-25.59 693.37-25.59 692.77-25.31 692.17-25.02 691.46-24.5 690.76-23.97 689.9-23.22L689.9-23.22 685.85-19.7 693.29-5.05Q693.98-3.59 694.5-2.91 695.03-2.22 695.85-2.22 696.66-2.22 697.2-2.64L697.2-2.64Q697.54-2.17 697.54-1.48 697.54-0.78 696.85-0.15 696.15 0.49 694.64 0.49 693.12 0.49 691.71-0.34L691.71-0.34Q690.56 0.49 689.18 0.49 687.8 0.49 686.78-0.24L686.78-0.24Q685.82 0.49 684.64 0.49 683.46 0.49 682.75-0.09 682.04-0.66 682.04-1.54 682.04-2.42 682.41-2.73L682.41-2.73Q683.36-2 684.31-2.49L684.31-2.49Q684.65-2.66 684.92-3.15L684.92-3.15 679.74-14.4 676.69-11.74 676.69-3.49Q677.16-2.29 678.23-2.29L678.23-2.29Q678.79-2.29 679.35-2.73L679.35-2.73Q679.72-2.42 679.72-1.53 679.72-0.63 679.01-0.07 678.3 0.49 677.11 0.49 675.91 0.49 674.96-0.24L674.96-0.24Q673.96 0.49 672.59 0.49 671.22 0.49 670.08-0.29ZM672.13-13.65L672.13-15.11 672.15-18.36 672.15-23.14Q672.15-27.69 671.98-28.44L671.98-28.44Q671.64-29.93 670.74-30.52L670.74-30.52 670.74-22.29Q670.74-17.24 670.63-16.66 670.52-16.09 670.44-15.82L670.44-15.82Q670.22-15.06 668.78-14.58L668.78-14.58Q670.25-14.06 670.44-13.35L670.44-13.35Q670.74-12.18 670.74-8.08L670.74-8.08 670.74-6.49Q672.03-7.32 672.1-10.89L672.1-10.89 672.1-12.35Q672.13-13.09 672.13-13.65L672.13-13.65ZM681.82-16.19L686.24-6.47Q686.56-6.88 686.56-7.59 686.56-8.3 686.45-8.86 686.34-9.42 686.17-9.99L686.17-9.99Q685.85-10.89 685.24-12.13L685.24-12.13 682.92-17.16 681.82-16.19ZM720.49-7.37L720.49-7.37Q721.03-8.4 722.47-8.4L722.47-8.4Q723.44-8.4 723.98-7.59L723.98-7.59Q724.42-6.96 724.42-6.04 724.42-5.13 723.96-4.2 723.49-3.27 722.69-2.51 721.88-1.76 720.84-1.17 719.81-0.59 718.63-0.2L718.63-0.2Q716.22 0.61 713.6 0.61 710.99 0.61 708.71-0.26 706.43-1.12 704.79-2.69L704.79-2.69Q701.59-5.76 700.88-11.13L700.88-11.13Q700.71-12.33 700.32-12.84L700.32-12.84Q699.59-13.75 697.91-14.58L697.91-14.58Q700.03-15.53 700.62-17.63L700.62-17.63Q700.79-18.21 700.88-18.8L700.88-18.8Q701.49-23.1 705.23-26.12L705.23-26.12Q708.84-29.05 713.31-29.05L713.31-29.05Q717.95-29.05 721.34-25.78L721.34-25.78Q724.86-22.41 724.86-17.5L724.86-17.5Q724.86-17.33 724.85-17.16 724.83-16.99 724.86-16.85L724.86-16.85Q724.91-16.53 725.25-16.48L725.25-16.48Q725.69-15.92 725.69-15.28L725.69-15.28Q725.69-13.82 724.13-13.55L724.13-13.55Q723.74-13.48 722.91-13.35L722.91-13.35 709.14-11.16 709.14-8.81Q709.14-5.98 710.85-4.32L710.85-4.32Q712.46-2.73 714.92-2.73L714.92-2.73Q717.54-2.73 719.12-3.81L719.12-3.81Q720.61-4.83 720.61-6.49L720.61-6.49Q720.61-6.88 720.49-7.37ZM709.14-14.11L716.22-15.26 716.22-22.09Q716.22-23.71 715.58-24.46L715.58-24.46Q714.46-25.76 713.36-25.76 712.26-25.76 711.53-25.43 710.8-25.1 710.26-24.39L710.26-24.39Q709.14-22.9 709.14-19.75L709.14-19.75 709.14-14.11ZM718.32-15.63L719.83-15.87 719.83-16.63Q719.83-21.17 719.07-22.12L719.07-22.12Q718.73-22.53 718.32-22.73L718.32-22.73 718.32-15.63ZM705.16-6.47L705.16-6.47Q705.5-6.74 705.5-7.08L705.5-7.08Q705.5-7.62 705.28-8.45L705.28-8.45Q704.28-12.28 704.28-13.78 704.28-15.28 704.38-16.13 704.47-16.97 704.64-17.82L704.64-17.82Q704.94-19.48 705.28-20.75L705.28-20.75Q705.5-21.58 705.5-21.88L705.5-21.88Q705.5-22.46 705.16-22.73L705.16-22.73Q704.13-21.51 703.59-19.46 703.06-17.41 702.72-15.84L702.72-15.84Q702.59-15.19 701.28-14.58L701.28-14.58Q702.59-13.96 702.72-13.35L702.72-13.35Q703.62-9.23 704.2-8.11 704.79-6.98 705.16-6.47ZM744.63-3.58Q745.1-4.05 745.36-4.8 745.63-5.54 745.63-6.36 745.63-7.18 745.54-7.86L745.54-7.86Q745.71-8.23 746.46-8.44 747.22-8.64 747.46-8.64L747.46-8.64Q748.39-8.64 748.95-7.95 749.51-7.25 749.51-6.02 749.51-4.79 748.79-3.59 748.07-2.39 746.88-1.46L746.88-1.46Q744.22 0.61 740.68 0.61L740.68 0.61Q733.94 0.61 731.74-4.49L731.74-4.49Q730.94-6.37 730.94-9.2L730.94-9.2 730.94-12.18Q730.94-13.33 728.42-14.6L728.42-14.6Q730.94-16.04 730.94-18.48L730.94-18.48 730.94-21.36Q730.94-24.15 728.67-24.15L728.67-24.15Q727.84-24.15 727.3-23.73L727.3-23.73Q726.96-24.19 726.96-24.69 726.96-25.2 727.14-25.79 727.32-26.39 727.79-26.88L727.79-26.88Q728.96-28.15 731.42-27.76L731.42-27.76 731.42-28.54Q731.42-31.1 732.72-33.06L732.72-33.06Q733.87-34.81 734.76-34.81 735.65-34.81 736.14-34.2L736.14-34.2Q736.55-36.13 737.23-36.99 737.92-37.84 739.19-37.84L739.19-37.84 739.19-27.66 747.12-27.66Q747.32-27.27 747.32-26.35 747.32-25.44 746.61-24.89 745.9-24.34 744.9-24.34L744.9-24.34 739.19-24.34 739.19-7.81Q739.19-3.56 741.12-2.83L741.12-2.83Q741.68-2.64 742.33-2.64 742.97-2.64 743.57-2.87 744.17-3.1 744.63-3.58ZM733.28-8.06L733.28-6.47Q734.43-7.2 734.57-9.52L734.57-9.52Q734.67-11.18 734.68-12.11 734.7-13.04 734.71-13.61 734.72-14.18 734.72-14.5L734.72-14.5 734.72-15.48Q734.72-16.19 734.71-17.3 734.7-18.41 734.68-19.71 734.67-21.02 734.62-22.22L734.62-22.22Q734.55-25.1 734.4-25.73L734.4-25.73Q734.11-27.15 733.28-27.69L733.28-27.69 733.28-20.07Q733.28-16.67 733.17-16.48 733.06-16.28 732.99-16.02L732.99-16.02Q732.77-15.28 731.33-14.79L731.33-14.79Q732.79-14.28 732.99-13.55L732.99-13.55Q733.28-12.38 733.28-8.06L733.28-8.06ZM767.04-37.89L767.04-37.89Q766.43-38.31 765.76-38.31 765.09-38.31 764.73-38.16 764.38-38.01 764.19-37.72L764.19-37.72Q763.87-37.28 763.7-35.96L763.7-35.96 761.43-14.09Q761.21-12.77 760.52-12.11 759.84-11.45 759.07-11.45 758.3-11.45 757.58-12.16 756.86-12.87 756.67-14.11L756.67-14.11 754.13-35.96Q753.96-37.28 753.71-37.65L753.71-37.65Q753.25-38.31 752.28-38.31 751.32-38.31 750.78-37.89L750.78-37.89Q750.51-38.23 750.51-38.96 750.51-39.7 751.14-40.36 751.76-41.02 753-41.02 754.25-41.02 755.54-40.65L755.54-40.65Q757.06-41.5 758.94-41.5 760.82-41.5 762.26-40.65L762.26-40.65Q763.45-41.02 764.76-41.02 766.07-41.02 766.69-40.34 767.31-39.67 767.31-39.06L767.31-39.06Q767.31-38.26 767.04-37.89ZM756.35-36.94L758.35-15.53Q758.89-15.8 758.89-19.17L758.89-19.17Q758.89-20.61 758.77-22.22L758.77-22.22 758.55-25.59Q757.91-34.79 757.01-36.57L757.01-36.57Q756.71-37.13 756.35-36.94L756.35-36.94ZM752.66-4L752.66-4Q754.03-4.86 754.38-5.38 754.74-5.91 754.96-6.32L754.96-6.32Q755.54-7.42 756.68-8.04 757.81-8.67 759.13-8.67L759.13-8.67Q761.87-8.67 763.09-6.37L763.09-6.37Q764.06-4.57 765.41-4L765.41-4Q765.04-3.78 764.72-3.61 764.41-3.44 764.14-3.22L764.14-3.22Q763.57-2.76 763.01-1.79 762.45-0.83 761.41-0.11 760.38 0.61 759.13 0.61L759.13 0.61Q757.89 0.61 756.73-0.11 755.57-0.83 754.96-1.93L754.96-1.93Q754.25-3.15 753.68-3.48 753.1-3.81 752.66-4ZM758.08-2.5Q757.94-2.76 757.85-3.11 757.76-3.47 757.76-4.43 757.76-5.4 758.69-6.79L758.69-6.79Q758.16-6.79 757.74-6.58 757.32-6.37 757.01-5.96 756.69-5.54 756.56-5.31 756.42-5.08 756.23-4.83L756.23-4.83Q755.76-4.15 755.47-4L755.47-4Q755.86-3.78 756.19-3.31 756.52-2.83 756.96-2.29L756.96-2.29Q757.62-1.51 758.69-1.51L758.69-1.51Q758.55-1.78 758.39-2.01 758.23-2.25 758.08-2.5Z" opacity="1" transform="matrix(1,0,0,1,0,0)" fill="#ffffff" class="slogan-text-1" data-fill-palette-color="secondary" id="text-1"></path></svg></g></svg></g></svg></g></svg></g></svg></g><defs></defs></svg><rect width="395.52" height="90.27521867759152" fill="none" stroke="none" visibility="hidden"></rect></g></svg></g></svg>